# xmcd CD database file
#
# Track frame offsets:
#	150
#	32023
#	44540
#	59660
#	77212
#	90074
#	107911
#	166751
#	184040
#	189461
#	213746
#	232692
#
# Disc length: 3254 seconds
#
# Revision: 1
# Processed by: cddbd v1.4PL0 Copyright (c) Steve Scherf et al.
# Submitted via: CDex 1.50beta9
#
DISCID=960cb40c
DTITLE=SOLEDAD - SOLEDAD
DYEAR=2001
DGENRE=Jazz
TTITLE0=Milonga del angel
TTITLE1=Michelangelo 70
TTITLE2=Escualo
TTITLE3=Tango pour Claude
TTITLE4=Tango
TTITLE5=Habanera
TTITLE6=Ballet-tango
TTITLE7=Tango I
TTITLE8=Tango II
TTITLE9=Libertango
TTITLE10=Noestro Tiempo
TTITLE11=De part et d'autre
EXTD=YEAR: 2001
EXTT0=
EXTT1=
EXTT2=
EXTT3=
EXTT4=
EXTT5=
EXTT6=
EXTT7=
EXTT8=
EXTT9=
EXTT10=
EXTT11=
PLAYORDER=
